# xmcd CD database file
#
# Track frame offsets:
#	150
#	17354
#	46738
#	69344
#	99582
#	114644
#	131743
#	158728
#	176323
#	209216
#
# Disc length: 3330 seconds
#
# Revision: 0
# Processed by: cddbd v1.5.2PL0 Copyright (c) Steve Scherf et al.
# Submitted via: CDex 1.70beta2
#
DISCID=800d000a
DTITLE=hoera. - Pracht
DYEAR=2013
DGENRE=Jazz
TTITLE0=Mylios
TTITLE1=Wandelijn
TTITLE2=Vaagjes
TTITLE3=Rudy Vekemans
TTITLE4=Onderweer
TTITLE5=Tavijrne
TTITLE6=Zeven
TTITLE7=Avondpracht
TTITLE8=Slaapgras
TTITLE9=Bigonville
EXTD=YEAR: 2013
EXTT0=
EXTT1=
EXTT2=
EXTT3=
EXTT4=
EXTT5=
EXTT6=
EXTT7=
EXTT8=
EXTT9=
PLAYORDER=
